<?xml version="1.0" encoding="UTF-8"?>
<svg id="Capa_2" data-name="Capa 2" xmlns="http://www.w3.org/2000/svg" viewBox="0 0 487.1 99.89">
  <defs>
    <style>
      .cls-1 {
        fill: #e22232;
      }

      .cls-1, .cls-2, .cls-3 {
        stroke-width: 0px;
      }

      .cls-2 {
        fill: #fdf4e3;
      }

      .cls-3 {
        fill: #18588f;
      }
    </style>
  </defs>
  <g id="Capa_1-2" data-name="Capa 1">
    <text/>
    <g>
      <path class="cls-3" d="m50.62,95.71c-7.28,0-13.98-1.16-20.12-3.48-6.14-2.32-11.48-5.61-16.04-9.86-4.56-4.25-8.11-9.31-10.65-15.19-2.54-5.87-3.81-12.31-3.81-19.33s1.27-13.45,3.81-19.33c2.54-5.87,6.09-10.93,10.65-15.19,4.56-4.25,9.9-7.54,16.04-9.86,6.13-2.32,12.84-3.48,20.12-3.48,8.5,0,16.11,1.47,22.81,4.4,5.17,2.27,9.68,5.35,13.52,9.26,1.88,1.92,1.75,5.03-.24,6.84l-9.66,8.74c-1.86,1.68-4.66,1.6-6.5-.11-2.13-1.97-4.39-3.58-6.8-4.81-3.6-1.84-7.54-2.76-11.83-2.76-3.77,0-7.23.61-10.39,1.84-3.16,1.23-5.85,3-8.09,5.33-2.23,2.32-3.99,5.11-5.26,8.35-1.27,3.24-1.91,6.84-1.91,10.78s.63,7.54,1.91,10.78c1.27,3.24,3.02,6.03,5.26,8.35,2.24,2.32,4.93,4.1,8.09,5.33,3.16,1.23,6.62,1.84,10.39,1.84,4.29,0,8.24-.92,11.83-2.76,2.4-1.23,4.67-2.85,6.8-4.87,1.83-1.73,4.66-1.83,6.53-.14l9.62,8.7c1.99,1.8,2.12,4.92.24,6.83-3.84,3.92-8.35,7.03-13.53,9.33-6.71,2.98-14.31,4.47-22.81,4.47Z"/>
      <path class="cls-3" d="m207.47,90.55V5.17c0-1.84,1.49-3.33,3.33-3.33h37.69c13.5,0,23.84,3.02,31.03,9.07,7.19,6.05,10.78,14.33,10.78,24.85,0,7.1-1.64,13.15-4.93,18.14-3.29,5-8,8.83-14.13,11.5-6.14,2.67-13.41,4.01-21.82,4.01h-19.24c-3.01,0-4.47-3.68-2.28-5.75h0c2.12-2,5.61-.5,5.61,2.42v24.45c0,1.84-1.49,3.33-3.33,3.33h-19.38c-1.84,0-3.33-1.49-3.33-3.33Zm20.31-35.06l-.52-.54c-2.04-2.11-.55-5.64,2.39-5.64h18.18c5.43,0,9.51-1.18,12.23-3.55,2.72-2.37,4.08-5.7,4.08-9.99s-1.36-7.38-4.08-9.79c-2.72-2.41-6.79-3.62-12.23-3.62h-18.12c-2.95,0-4.44-3.55-2.38-5.65l.46-.47c2.09-2.13,5.71-.66,5.71,2.33v34.62c0,2.99-3.64,4.46-5.72,2.31Zm35.49,36.93l-18.34-26.87c-1.51-2.21.07-5.2,2.75-5.2h19.69c1.1,0,2.12.54,2.74,1.44l18.44,26.87c1.52,2.21-.07,5.21-2.74,5.21h-19.79c-1.1,0-2.13-.54-2.75-1.45Z"/>
      <path class="cls-3" d="m305.87,85.83V13.12c0-5.34,4.33-9.66,9.66-9.66h52.72c5.34,0,9.66,4.33,9.66,9.66v.92c0,5.34-4.33,9.66-9.66,9.66h-27.08c-5.34,0-9.66,4.33-9.66,9.66v32.21c0,5.34,4.33,9.66,9.66,9.66h28.79c5.34,0,9.66,4.33,9.66,9.66v.92c0,5.34-4.33,9.66-9.66,9.66h-54.43c-5.34,0-9.66-4.33-9.66-9.66Zm28.25-37.08h0c0-5.34-.13-9.66,5.21-9.66h21.03c5.34,0,9.66,4.33,9.66,9.66h0c0,5.34-4.33,9.66-9.66,9.66h-21.03c-5.34,0-5.21-4.33-5.21-9.66Z"/>
      <path class="cls-3" d="m384.08,89.01L421.65,3.91c.55-1.26,1.8-2.07,3.17-2.07h21.12c1.37,0,2.61.81,3.17,2.06l37.69,85.1c1.02,2.29-.66,4.87-3.17,4.87h-19.41c-1.42,0-2.69-.86-3.22-2.18l-29.03-72.34c-.91-2.28.76-4.76,3.22-4.76h0c2.45,0,4.13,2.48,3.22,4.76l-29.03,72.34c-.53,1.31-1.8,2.18-3.22,2.18h-18.89c-2.51,0-4.18-2.58-3.17-4.87Zm21.7-17.76l4.27-12.13c.49-1.39,1.8-2.32,3.27-2.32h40.05c1.47,0,2.78.93,3.27,2.32l4.27,12.13c.79,2.26-.88,4.62-3.27,4.62h-48.58c-2.39,0-4.06-2.36-3.27-4.62Z"/>
    </g>
    <g>
      <circle class="cls-3" cx="145.52" cy="50.13" r="49.75"/>
      <circle class="cls-2" cx="145.52" cy="50.13" r="46.75"/>
      <polygon class="cls-1" points="145.52 14.9 153.67 40.42 179.41 40.42 158.56 56.56 166.41 82.26 145.52 66.66 124.72 82.26 132.03 56.4 111.63 40.55 137.17 40.5 145.52 14.9"/>
    </g>
  </g>
</svg>